<svg xmlns="http://www.w3.org/2000/svg" viewBox="0 0 64 64"><rect width="64" height="64" rx="15" fill="#24337E"/><circle cx="35.5" cy="17.5" r="3.6" fill="#D9461A"/><circle cx="40.5" cy="15.2" r="3.9" fill="#D9461A"/><circle cx="45.4" cy="17.6" r="3.4" fill="#D9461A"/><path d="M14 41 L8.5 22.5 Q8.2 20.6 10 21.6 L26 31 Z" fill="#F5F4F0"/><ellipse cx="29" cy="40.5" rx="17.5" ry="13" fill="#F5F4F0"/><path d="M33 34 Q35 25 40.5 21 L46 26 Q45 33 41 38 Z" fill="#F5F4F0"/><circle cx="41" cy="26" r="8.6" fill="#F5F4F0"/><path d="M48.8 23.6 L55.2 26.6 L48.8 29.6 Z" fill="#F2B807"/><ellipse cx="47.3" cy="32.6" rx="2.1" ry="2.8" fill="#D9461A"/><circle cx="43.4" cy="24.6" r="1.7" fill="#141C47"/><path d="M19 39.5 Q27 47 37 40" fill="none" stroke="#C8CFEC" stroke-width="2.6" stroke-linecap="round"/></svg>
